#!OML:ASF F:\VICON\USERDATA\INSTALL\rory3\rory3.ASF
:FULLY-SPECIFIED
:DEGREES
1322
root -13.2706 17.9244 13.224 22.491 259.858 -20.1938
lowerback 9.1851 1.70324 -0.940887
upperback 1.72463 2.13635 0.50521
thorax -3.41051 1.04845 0.797234
lowerneck -7.27122 -1.36741 -12.4775
upperneck 43.3586 -4.66122 5.37983
head 17.7029 -4.2075 3.72869
rclavicle -3.8763e-015 0
rhumerus -28.7548 -10.8251 -79.9498
rradius 37.2986
rwrist 3.44205
rhand -16.0519 6.92498
rfingers 7.12502
rthumb 10.1501 -22.8102
lclavicle -3.8763e-015 0
lhumerus -34.6613 8.56798 85.5691
lradius 29.1255
lwrist -7.07096
lhand -18.5564 27.2003
lfingers 7.12502
lthumb 7.73336 57.0388
rfemur -11.8917 -7.75021 17.0364
rtibia 39.8961
rfoot -15.8505 -25.16
rtoes 23.4187
lfemur -11.8784 4.38422 -26.4518
ltibia 19.426
lfoot -5.72436 -1.87772
ltoes -5.53915
1323
root -13.2757 17.9314 13.2297 24.008 260.246 -21.8004
lowerback 9.22965 1.71916 -1.13359
upperback 1.76533 2.1356 0.459374
thorax -3.3983 1.04918 0.857469
lowerneck -7.17458 -1.34895 -12.4222
upperneck 43.3423 -4.65656 5.41143
head 17.6649 -4.18897 3.73626
rclavicle 1.2424e-014 1.59028e-014
rhumerus -28.6202 -10.8617 -80.1581
rradius 37.2339
rwrist 3.39414
rhand -16.1805 7.02582
rfingers 7.12502
rthumb 10.026 -22.7154
lclavicle 1.2424e-014 1.59028e-014
lhumerus -34.4853 7.72102 85.7744
lradius 29.3674
lwrist -6.54476
lhand -18.5958 27.04
lfingers 7.12502
lthumb 7.69533 56.88
rfemur -12.2023 -7.72251 16.9392
rtibia 40.6306
rfoot -15.1548 -24.8603
rtoes 24.0594
lfemur -11.6681 4.51282 -26.6257
ltibia 19.1514
lfoot -5.69365 -2.49011
ltoes -5.47566
1324
root -13.2823 17.9329 13.2336 25.1177 260.546 -22.954
lowerback 9.23106 1.78671 -1.30664
upperback 1.76687 2.20815 0.441906
thorax -3.40513 1.087 0.927624
lowerneck -7.03022 -1.33142 -12.4253
upperneck 43.374 -4.65685 5.43561
head 17.647 -4.18846 3.75109
rclavicle -2.16675e-014 3.18055e-015
rhumerus -28.5594 -11.1906 -80.2543
rradius 37.1758
rwrist 3.6995
rhand -16.0665 7.11096
rfingers 7.12502
rthumb 10.136 -22.6249
lclavicle -2.16675e-014 3.18055e-015
lhumerus -34.3719 6.94815 85.8954
lradius 29.6353
lwrist -6.0665
lhand -18.5005 26.7138
lfingers 7.12502
lthumb 7.78724 56.5504
rfemur -12.5284 -7.36317 16.8397
rtibia 41.2862
rfoot -14.5717 -24.1317
rtoes 23.9148
lfemur -11.4794 4.61348 -26.7206
ltibia 18.8755
lfoot -5.7139 -2.99801
ltoes -5.12184
1325
root -13.2874 17.9299 13.2384 26.4808 260.846 -24.364
lowerback 9.21727 1.81353 -1.50767
upperback 1.78939 2.22397 0.432957
thorax -3.38184 1.09648 1.03004
lowerneck -6.96641 -1.35145 -12.36
upperneck 43.4148 -4.66594 5.32802
head 17.6511 -4.19492 3.68886
rclavicle -1.19271e-015 1.19271e-014
rhumerus -28.4956 -11.2667 -80.3626
rradius 37.1796
rwrist 4.14428
rhand -15.9613 7.05838
rfingers 7.12502
rthumb 10.2375 -22.6725
lclavicle -1.19271e-015 1.19271e-014
lhumerus -34.2555 6.44884 85.9679
lradius 29.9664
lwrist -5.85358
lhand -18.3578 26.5775
lfingers 7.12502
lthumb 7.92503 56.409
rfemur -12.7929 -6.89738 16.7037
rtibia 41.8609
rfoot -14.6338 -23.0948
rtoes 23.4269
lfemur -11.3181 4.49116 -26.8165
ltibia 18.6799
lfoot -5.65725 -3.34048
ltoes -4.0993
1326
root -13.2909 17.9261 13.2429 27.8752 261.237 -25.8506
lowerback 9.24874 1.79666 -1.58772
upperback 1.85188 2.18953 0.374619
thorax -3.3341 1.07851 1.01902
lowerneck -7.01456 -1.46464 -12.144
upperneck 43.4624 -4.8498 5.23856
head 17.7076 -4.24386 3.5786
rclavicle 5.06901e-015 -5.56597e-015
rhumerus -28.4432 -11.2894 -80.5888
rradius 37.2321
rwrist 4.37328
rhand -15.8877 7.13126
rfingers 7.12502
rthumb 10.3085 -22.5961
lclavicle 5.06901e-015 -5.56597e-015
lhumerus -34.0237 6.28487 85.9583
lradius 30.2265
lwrist -5.90062
lhand -18.3759 26.8228
lfingers 7.12502
lthumb 7.90754 56.6549
rfemur -12.9563 -6.47715 16.6421
rtibia 42.348
rfoot -15.309 -21.9191
rtoes 22.7069
lfemur -11.16 4.24557 -26.8551
ltibia 18.5844
lfoot -5.57704 -3.57146
ltoes -3.14575
